<svg width="602" height="582" viewBox="0 0 602 582" fill="none" xmlns="http://www.w3.org/2000/svg">
<path opacity="0.05" d="M128.5 55.4991C198.4 5.29912 287.4 -10.0009 370 13.7991C519.3 56.7991 605.5 212.599 562.5 361.799C519.5 510.999 363.7 597.299 214.5 554.299C72 513.299 -13.1 369.299 17 226.499" stroke="#0C0F3D" stroke-width="4" stroke-linecap="round" stroke-linejoin="round"/>
<path opacity="0.1" d="M82.3998 361.799C53.3998 282.499 70.5998 190.199 134.2 126.599C221.5 39.299 363 39.299 450.3 126.599C537.6 213.899 537.6 355.399 450.3 442.699C368.5 524.499 239 529.599 151.2 457.999" stroke="#0C0F3D" stroke-width="4" stroke-linecap="round" stroke-linejoin="round"/>
<path opacity="0.15" d="M299.3 444.199C234.7 446.899 174.9 410.599 147.4 352.099C109.7 271.899 144.1 176.299 224.3 138.599C304.5 100.799 400.1 135.299 437.9 215.399C437.9 215.399 437.9 215.399 437.9 215.499C475.6 295.699 441.1 391.299 360.9 428.999" stroke="#0C0F3D" stroke-width="4" stroke-linecap="round" stroke-linejoin="round"/>
<path opacity="0.15" d="M386.3 323.099C364.6 374.799 305.1 399.199 253.3 377.499C201.6 355.799 177.2 296.299 198.9 244.499C220.6 192.799 280.1 168.399 331.9 190.099C369.6 205.899 394.2 242.899 394.2 283.799" stroke="#0C0F3D" stroke-width="4" stroke-linecap="round" stroke-linejoin="round"/>
<g filter="url(#filter0_d)">
<path d="M92.4 531.999C118.468 531.999 139.6 510.866 139.6 484.799C139.6 458.731 118.468 437.599 92.4 437.599C66.3321 437.599 45.2 458.731 45.2 484.799C45.2 510.866 66.3321 531.999 92.4 531.999Z" fill="white"/>
</g>
<path d="M570.8 330.099C581.238 330.099 589.7 321.637 589.7 311.199C589.7 300.761 581.238 292.299 570.8 292.299C560.362 292.299 551.9 300.761 551.9 311.199C551.9 321.637 560.362 330.099 570.8 330.099Z" fill="white"/>
<g filter="url(#filter1_d)">
<path d="M129.1 88.2988C148.651 88.2988 164.5 72.6288 164.5 53.2988C164.5 33.9689 148.651 18.2988 129.1 18.2988C109.549 18.2988 93.7 33.9689 93.7 53.2988C93.7 72.6288 109.549 88.2988 129.1 88.2988Z" fill="white"/>
</g>
<g filter="url(#filter2_d)">
<path d="M473.5 198.099C489.13 198.099 501.8 185.429 501.8 169.799C501.8 154.169 489.13 141.499 473.5 141.499C457.87 141.499 445.2 154.169 445.2 169.799C445.2 185.429 457.87 198.099 473.5 198.099Z" fill="white"/>
</g>
<path d="M17.3999 242.799C26.5126 242.799 33.8999 235.412 33.8999 226.299C33.8999 217.186 26.5126 209.799 17.3999 209.799C8.2872 209.799 0.899902 217.186 0.899902 226.299C0.899902 235.412 8.2872 242.799 17.3999 242.799Z" fill="white"/>
<path d="M439.7 59.6992C448.813 59.6992 456.2 52.3119 456.2 43.1992C456.2 34.0865 448.813 26.6992 439.7 26.6992C430.587 26.6992 423.2 34.0865 423.2 43.1992C423.2 52.3119 430.587 59.6992 439.7 59.6992Z" fill="white"/>
<g clip-path="url(#clip0)" filter="url(#filter3_d)">
<path d="M369.2 459.813C389.15 459.813 405.2 443.983 405.2 424.307C405.2 404.63 389.15 388.8 369.2 388.8C349.25 388.8 333.2 404.63 333.2 424.307C333.2 443.983 349.25 459.813 369.2 459.813Z" fill="#2775CA"/>
<path d="M379.1 429.928C379.1 424.75 375.95 422.975 369.65 422.235C365.15 421.643 364.25 420.46 364.25 418.388C364.25 416.317 365.75 414.986 368.75 414.986C371.45 414.986 372.95 415.873 373.7 418.093C373.85 418.536 374.3 418.832 374.75 418.832H377.15C377.75 418.832 378.2 418.388 378.2 417.797V417.649C377.6 414.394 374.9 411.879 371.45 411.583V408.032C371.45 407.441 371 406.997 370.25 406.849H368C367.4 406.849 366.95 407.292 366.8 408.032V411.435C362.3 412.027 359.45 414.986 359.45 418.684C359.45 423.567 362.45 425.49 368.75 426.23C372.95 426.969 374.3 427.857 374.3 430.224C374.3 432.591 372.2 434.219 369.35 434.219C365.45 434.219 364.1 432.591 363.65 430.372C363.5 429.78 363.05 429.484 362.6 429.484H360.05C359.45 429.484 359 429.928 359 430.52V430.668C359.6 434.366 362 437.029 366.95 437.769V441.32C366.95 441.912 367.4 442.355 368.15 442.504H370.4C371 442.504 371.45 442.06 371.6 441.32V437.769C376.1 437.029 379.1 433.923 379.1 429.928V429.928Z" fill="white"/>
<path d="M361.55 445.463C349.85 441.321 343.85 428.449 348.2 417.057C350.45 410.844 355.4 406.11 361.55 403.89C362.15 403.595 362.45 403.151 362.45 402.411V400.34C362.45 399.748 362.15 399.304 361.55 399.156C361.4 399.156 361.1 399.156 360.95 399.304C346.7 403.742 338.9 418.685 343.4 432.74C346.1 441.024 352.55 447.386 360.95 450.049C361.55 450.345 362.15 450.049 362.3 449.457C362.45 449.31 362.45 449.162 362.45 448.866V446.794C362.45 446.351 362 445.759 361.55 445.463ZM377.45 399.304C376.85 399.008 376.25 399.304 376.1 399.896C375.95 400.044 375.95 400.192 375.95 400.488V402.559C375.95 403.151 376.4 403.742 376.85 404.038C388.55 408.181 394.55 421.052 390.2 432.444C387.95 438.658 383 443.392 376.85 445.611C376.25 445.907 375.95 446.351 375.95 447.09V449.162C375.95 449.753 376.25 450.197 376.85 450.345C377 450.345 377.3 450.345 377.45 450.197C391.7 445.759 399.5 430.816 395 416.762C392.3 408.329 385.7 401.967 377.45 399.304V399.304Z" fill="white"/>
</g>
<g filter="url(#filter4_d)">
<path d="M292.623 340.495C323.938 340.495 349.324 315.109 349.324 283.794C349.324 252.479 323.938 227.093 292.623 227.093C261.308 227.093 235.922 252.479 235.922 283.794C235.922 315.109 261.308 340.495 292.623 340.495Z" fill="#F89F36"/>
</g>
<path d="M292.6 340.8C261.1 340.8 235.6 315.3 235.6 283.8C235.6 252.3 261.1 226.8 292.6 226.8C324.1 226.8 349.6 252.3 349.6 283.8C349.5 315.3 324.1 340.7 292.6 340.8ZM292.6 236.3C266.4 236.3 245.1 257.6 245.1 283.8C245.1 310 266.4 331.3 292.6 331.3C318.8 331.3 340.1 310 340.1 283.8C340.1 257.6 318.8 236.3 292.6 236.3Z" fill="white"/>
<path d="M314.177 277.864C315.359 271.617 310.686 268.111 304.334 265.714L306.815 257.216L301.662 255.742L299.28 264.066L295.229 262.883L297.697 254.608L292.544 253.134L290.063 261.632L286.891 260.724L279.843 258.733L278.255 264.283C278.255 264.283 282.009 265.18 281.959 265.267C283.422 265.534 284.458 266.94 284.191 268.403L281.419 278.003L281.939 278.303L281.319 278.176L277.413 291.741C277 292.657 276.03 293.136 275.014 292.896L271.274 291.775L268.457 297.655L275.109 299.532L278.763 300.603L276.232 309.187L281.299 310.612L283.78 302.114L287.831 303.298L285.399 311.709L290.503 313.27L293.034 304.685C301.659 306.547 308.358 306.143 311.432 298.218C313.88 291.779 311.689 287.974 307.136 285.46C310.674 284.732 313.176 282.597 314.127 277.95L314.177 277.864ZM301.776 294.144C299.911 300.573 289.299 296.755 285.817 295.785L289.143 284.425C292.574 285.482 303.604 287.578 301.776 294.144ZM303.983 277.52C302.332 283.38 293.478 280.116 290.617 279.272L293.602 269.102C296.513 269.859 305.784 271.401 303.983 277.52Z" fill="white"/>
<path d="M133.2 300.899C142.313 300.899 149.7 293.512 149.7 284.399C149.7 275.287 142.313 267.899 133.2 267.899C124.087 267.899 116.7 275.287 116.7 284.399C116.7 293.512 124.087 300.899 133.2 300.899Z" fill="white"/>
<path d="M133.2 267.799C124 267.699 116.6 275.099 116.5 284.299C116.4 293.499 123.8 300.899 133 300.999C142.2 301.099 149.6 293.699 149.7 284.499V284.399C149.7 275.299 142.3 267.899 133.2 267.799Z" fill="#0C0F3D"/>
<path d="M127.5 276.399H129.8L133.2 283.299L136.5 276.399H138.8L134.7 284.299H138V285.799H134.1V287.099H138V288.599H134.1V292.299H132.3V288.599H128.4V287.099H132.3V285.799H128.4V284.299H131.7L127.5 276.399Z" fill="white"/>
<path d="M136.6 33.6992H119L117.5 41.7992H133.4C141.2 41.7992 143.5 44.6992 143.4 49.3992C143.2 52.0992 142.7 54.6992 141.9 57.1992C140.7 60.6992 138.2 64.6992 129 64.6992H113.5L112.1 72.8992H129.6C135.8 72.8992 138.4 72.0992 141.2 70.7992C147.4 67.9992 151.1 61.8992 152.5 53.8992C154.7 42.0992 152 33.6992 136.6 33.6992Z" fill="#008DE4"/>
<path d="M111.4 49.1992C106.8 49.1992 106.1 52.1992 105.7 53.9992C105.3 55.7992 104.9 57.2992 104.9 57.2992H122.9C127.5 57.2992 128.2 54.2992 128.6 52.4992L129.4 49.1992H111.4Z" fill="#008DE4"/>
<path d="M377.8 243.399C386.913 243.399 394.3 236.012 394.3 226.899C394.3 217.787 386.913 210.399 377.8 210.399C368.687 210.399 361.3 217.787 361.3 226.899C361.3 236.012 368.687 243.399 377.8 243.399Z" fill="white"/>
<path d="M377.8 210.399C368.7 210.399 361.3 217.799 361.3 226.899C361.3 235.999 368.7 243.399 377.8 243.399C386.9 243.399 394.3 235.999 394.3 226.899C394.3 217.799 386.9 210.399 377.8 210.399ZM384.3 235.699H371.3V233.399L371.8 232.999L372.2 232.499C372.4 232.399 372.5 232.199 372.6 231.999C372.8 231.799 372.9 231.599 373 231.299L373.3 230.499C373.5 230.099 373.6 229.699 373.6 229.299C373.6 228.899 373.7 228.399 373.7 227.899V227.499H371.4V225.099H373.6V224.499C373.6 223.699 373.7 222.999 373.8 222.199C373.9 221.499 374 220.799 374.3 220.199C374.5 219.599 374.9 218.999 375.4 218.499C375.9 217.999 376.5 217.699 377.1 217.499C377.9 217.199 378.8 217.099 379.7 217.099C381.2 216.999 382.6 217.399 383.9 217.999L383.1 220.399C382.1 219.899 381 219.599 379.9 219.599C379 219.499 378.1 219.899 377.5 220.599C376.9 221.499 376.6 222.699 376.7 223.799V225.099H380.9V227.499H376.8V227.899C376.8 228.999 376.7 229.999 376.5 231.099C376.5 231.799 376.2 232.499 375.8 233.099H384.2C384.3 233.999 384.3 234.799 384.3 235.699Z" fill="#0C0F3D"/>
<path d="M17.3999 209.799C8.2999 209.799 0.899902 217.199 0.899902 226.299C0.899902 235.399 8.2999 242.799 17.3999 242.799C26.4999 242.799 33.8999 235.399 33.8999 226.299C33.8999 217.199 26.4999 209.799 17.3999 209.799Z" fill="#0C0F3D"/>
<path d="M22.6999 231.799C22.4999 232.399 22.0999 232.899 21.5999 233.199C21.0999 233.499 20.5999 233.799 19.9999 233.999C19.3999 234.299 18.6999 234.399 17.9999 234.399V236.599H16.8999V234.399C15.8999 234.399 14.8999 234.199 13.8999 233.899C13.0999 233.599 12.3999 233.099 11.6999 232.599L12.8999 230.499C13.4999 230.899 14.0999 231.299 14.7999 231.499C15.4999 231.799 16.1999 231.899 16.8999 231.999V226.999H16.4999L15.9999 226.799H15.5999C14.4999 226.399 13.3999 225.799 12.5999 224.999C11.9999 224.199 11.5999 223.199 11.6999 222.199C11.5999 220.899 12.0999 219.599 13.1999 218.799C14.2999 217.999 15.5999 217.599 16.8999 217.599V215.999H17.9999V217.599C18.9999 217.599 19.9999 217.799 20.9999 218.099C21.6999 218.399 22.3999 218.799 22.9999 219.399L21.5999 221.299C20.5999 220.399 19.2999 219.999 17.9999 219.999V224.499L19.6999 225.099C20.7999 225.399 21.6999 226.099 22.3999 226.899C22.9999 227.699 23.1999 228.699 23.1999 229.699C23.1999 230.399 22.9999 231.199 22.6999 231.799Z" fill="white"/>
<path d="M19.7999 228.5L19.2 227.9L17.9999 227.4V231.9C19.3999 231.8 20.2 231.1 20.2 229.7C20.2 228.3 20.1 229.2 20.1 229C20 228.8 19.8999 228.6 19.7999 228.5ZM14.7 221.9C14.7 222.4 14.9 222.9 15.2 223.2C15.7 223.7 16.3 224 16.9 224.2V220.1C16.3 220.2 15.7999 220.4 15.2999 220.7C14.8999 221 14.7 221.4 14.7 221.9Z" fill="#0B223D"/>
<path d="M92.7999 448.5V474.399C92.7999 474.499 92.5999 474.499 92.4999 474.599L90.4 475.599L87.2999 477L83.6 478.7L80.6 480L76.9999 481.7L73.9 483.099L71.4 484.2H71.2L72.1 482.599L77.4999 473.7L83.2999 464L88.7 455.099C90 452.899 91.4 450.699 92.6 448.599C92.7 448.499 92.6999 448.5 92.7999 448.5C92.7999 448.5 92.6999 448.4 92.7999 448.5Z" fill="#8A92B2"/>
<path d="M114.2 484.199L109.1 487.199L92.9999 496.799C92.8999 496.799 92.7999 496.799 92.7999 496.899C92.7999 496.999 92.7 496.799 92.7 496.699V474.499C92.8 474.399 92.8999 474.399 92.9999 474.499L94.4 475.099L98.4999 476.899L102 478.599L105.6 480.199L108.6 481.599L111.7 482.999L114.1 483.999C114.1 484.199 114.2 484.199 114.2 484.199Z" fill="#454A75"/>
<path d="M92.7999 518.699C92.6999 518.599 92.6 518.599 92.6 518.499L86.1 509.399C83.9 506.199 81.6 503.099 79.4 499.999L72.9999 490.899L71.2999 488.499C71.1999 488.399 71.2 488.399 71.2 488.299H71.4L80.4999 493.699L90.9 499.899L92.7 500.899C92.8 500.999 92.7999 500.999 92.7999 501.099V518.499V518.699V518.699Z" fill="#8A92B2"/>
<path d="M71.0999 484.299C72.1999 483.799 73.2998 483.199 74.3998 482.799L78.7998 480.799L81.9998 479.299L86.7998 477.099L90.0999 475.599L92.4998 474.599L92.6998 474.399V496.599C92.6998 496.699 92.5998 496.799 92.6998 496.899H92.4998L91.5999 496.299L71.2998 484.299H71.0999V484.299ZM114.2 488.399C114.2 488.499 114.2 488.499 114.1 488.599L94.7998 515.899L92.7998 518.699C92.6998 518.699 92.6998 518.699 92.6998 518.599V501.099L97.0999 498.499L114.1 488.499L114.2 488.399Z" fill="#62688F"/>
<path d="M92.7 474.499V448.799C92.7 448.699 92.6999 448.599 92.7999 448.499C99.8999 460.299 107 472.099 114 483.899C114.1 483.999 114.2 484.099 114.2 484.299L112.8 483.599L111.1 482.899L110 482.399L108.3 481.599L107.2 481.099L104.9 479.999L103.7 479.499L102 478.799L101 478.299L98.7 477.199L97.4999 476.699L95.7999 475.999L94.7 475.399L92.7 474.499Z" fill="#62688F"/>
<g filter="url(#filter5_d)">
<path d="M571.1 331.799C582.422 331.799 591.6 322.621 591.6 311.299C591.6 299.977 582.422 290.799 571.1 290.799C559.778 290.799 550.6 299.977 550.6 311.299C550.6 322.621 559.778 331.799 571.1 331.799Z" fill="#FFC926"/>
</g>
<path d="M582.9 311.399C582.9 310.999 582.8 310.499 582.8 310.099H585V307.499H582.1C580.5 303.099 576.2 300.099 571.5 300.099H561.8V307.399H558.6V309.999H561.9V312.799H558.7V315.499H562V322.799H571.7C576.4 322.799 580.6 319.899 582.3 315.599H585.2V312.899H582.9C582.9 312.399 582.9 311.899 582.9 311.399ZM564.2 302.399H571.5C574.9 302.399 578 304.399 579.5 307.399H564.2V302.399ZM564.2 309.999H580.4C580.4 310.399 580.5 310.899 580.5 311.299C580.5 311.799 580.4 312.299 580.3 312.799L564.2 312.599V309.999ZM571.5 320.399H564.2V315.399H579.4C577.9 318.399 574.9 320.299 571.5 320.399Z" fill="white"/>
<path d="M487.3 410.899C496.413 410.899 503.8 403.512 503.8 394.399C503.8 385.287 496.413 377.899 487.3 377.899C478.187 377.899 470.8 385.287 470.8 394.399C470.8 403.512 478.187 410.899 487.3 410.899Z" fill="white"/>
<path d="M487.3 377.799C478.1 377.699 470.7 385.099 470.6 394.299C470.5 403.499 477.9 410.899 487.1 410.999C496.3 411.099 503.7 403.699 503.8 394.499V394.399C503.8 385.299 496.4 377.899 487.3 377.799Z" fill="#0C0F3D"/>
<path d="M492.3 396.599C492.3 397.199 492.1 397.899 491.7 398.399C490.8 399.299 489.5 399.799 488.2 399.699H488V402.099H486.8V399.699H482.4V399.299C482.9 399.399 483.4 399.299 483.8 398.999C483.9 398.899 484 398.799 484 398.599C484.1 398.299 484.1 398.099 484.1 397.799V390.099C484.1 389.499 484 389.099 483.7 388.899C483.6 388.799 483.5 388.699 483.3 388.699H482.4V388.299H486.8V386.099H488V388.399C490.5 388.599 491.8 389.499 491.8 391.299C491.8 391.699 491.7 392.099 491.5 392.399C491.4 392.699 491.2 392.899 490.9 393.099L490.3 393.499L489.5 393.799C491.4 394.099 492.3 395.099 492.3 396.599ZM490 391.299C490 390.699 489.8 390.199 489.5 389.699C489.1 389.299 488.6 389.099 488 388.999V393.299C489 393.399 489.9 392.599 490 391.499C490 391.399 490 391.399 490 391.299ZM486.8 393.299V388.899H486.2C486 388.899 485.9 388.999 485.9 389.399V393.299H486.8ZM490.4 396.499C490.4 395.399 489.7 394.499 488.6 394.299H488V399.099C489.6 398.799 490.4 397.999 490.4 396.499ZM486.8 398.999V393.999H485.9V398.299C485.9 398.499 486 398.799 486.2 398.899L486.8 398.999Z" fill="white"/>
<g filter="url(#filter6_d)">
<path d="M216.2 164.6C228.903 164.6 239.2 154.302 239.2 141.6C239.2 128.897 228.903 118.6 216.2 118.6C203.497 118.6 193.2 128.897 193.2 141.6C193.2 154.302 203.497 164.6 216.2 164.6Z" fill="white"/>
</g>
<path d="M217.9 134.5C216.7 135.2 216.2 136.7 216.9 137.9C217.6 139.1 219.2 139.6 220.4 138.9C221.6 138.2 222 136.6 221.3 135.4C220.6 134.2 219.1 133.8 217.9 134.5ZM215.4 130.2C214.6 130.7 214.3 131.8 214.8 132.6C215.4 133.4 216.6 133.5 217.3 132.8C217.9 132.3 218.1 131.6 217.9 130.9C217.4 130 216.3 129.7 215.4 130.2ZM215.4 150.1C214.6 150.6 214.3 151.7 214.8 152.5C215.4 153.3 216.6 153.4 217.3 152.7C217.9 152.2 218.1 151.5 217.9 150.8C217.4 149.9 216.3 149.6 215.4 150.1ZM224 135.1C223.2 135.7 222.9 136.7 223.4 137.6C223.9 138.4 225 138.7 225.8 138.2C226.6 137.7 226.9 136.7 226.5 135.8C226 134.9 224.9 134.6 224 135.1ZM206.7 145.1C205.9 145.5 205.5 146.5 205.9 147.4C205.9 147.4 205.9 147.5 206 147.5C206.5 148.4 207.6 148.7 208.4 148.2C208.4 148.2 208.4 148.2 208.5 148.2C209.3 147.7 209.6 146.6 209.1 145.8C208.7 145 207.7 144.6 206.8 145C206.8 145.1 206.7 145.1 206.7 145.1ZM206.6 135.1C205.7 135.6 205.4 136.7 205.9 137.5C205.9 137.5 205.9 137.5 205.9 137.6C206.4 138.4 207.5 138.7 208.3 138.2C209.1 137.8 209.5 136.8 209.1 135.9C209.1 135.9 209.1 135.8 209 135.8C208.6 135 207.6 134.6 206.7 135C206.7 135.1 206.6 135.1 206.6 135.1ZM224 145C223.2 145.5 222.9 146.6 223.4 147.4C223.8 148.2 224.8 148.6 225.7 148.2C225.7 148.2 225.8 148.2 225.8 148.1C226.6 147.6 226.9 146.5 226.5 145.6C225.9 144.8 224.9 144.5 224 145ZM228.6 140.4C227.9 140.8 227.6 141.7 228 142.4C228.4 143 229.2 143.2 229.9 142.9C230.6 142.5 230.9 141.7 230.5 141C230.1 140.3 229.3 140 228.6 140.4ZM202.4 140.4C201.7 140.8 201.5 141.7 201.9 142.4C202.3 143.1 203.1 143.3 203.8 142.9C204.5 142.5 204.8 141.7 204.4 141C204 140.3 203.1 140 202.4 140.4ZM221.4 130.4C221.4 131.2 222 131.8 222.8 131.8C223.6 131.9 224.2 131.3 224.3 130.5C224.3 129.7 223.7 129.1 222.9 129C222.1 129 221.5 129.6 221.4 130.4ZM208.1 152.8C208.1 153.6 208.7 154.2 209.5 154.3C210.3 154.3 210.9 153.7 210.9 152.9C211 152.2 210.4 151.6 209.7 151.5C209.6 151.5 209.6 151.5 209.5 151.5C208.8 151.4 208.2 152 208.1 152.7C208.1 152.7 208.1 152.8 208.1 152.8ZM208.9 131.6C209.5 132 210.3 131.9 210.7 131.3C210.7 131.2 210.8 131.2 210.8 131.1C211.2 130.4 211 129.5 210.3 129.1C209.6 128.7 208.7 129 208.3 129.6C207.9 130.2 208.2 131.2 208.9 131.6ZM222.1 154.1C222.7 154.6 223.6 154.5 224.1 153.8C224.6 153.2 224.5 152.3 223.8 151.8C223.7 151.7 223.6 151.7 223.5 151.6C222.8 151.3 222 151.6 221.7 152.3C221.4 153 221.6 153.7 222.1 154.1ZM220.8 139.5C219.6 140.2 219.1 141.8 219.8 143C220.5 144.2 222.1 144.6 223.3 143.9C224.5 143.2 224.9 141.7 224.2 140.5C223.5 139.3 222 138.8 220.8 139.5ZM217.9 144.6C216.7 145.3 216.2 146.8 216.9 148C217.6 149.2 219.2 149.6 220.4 149C221.6 148.3 222 146.7 221.3 145.5C220.6 144.3 219.1 143.9 217.9 144.6ZM214.5 134.5C215.7 135.2 216.1 136.7 215.5 137.9C214.8 139.1 213.3 139.5 212 138.9C210.8 138.2 210.4 136.6 211.1 135.4C211.7 134.2 213.2 133.8 214.3 134.4C214.4 134.4 214.4 134.5 214.5 134.5ZM211.6 139.5C212.8 140.2 213.2 141.8 212.6 143C211.9 144.2 210.3 144.6 209.1 143.9C207.9 143.2 207.5 141.7 208.2 140.5C208.9 139.3 210.4 138.8 211.6 139.5ZM214.5 144.6C215.7 145.3 216.1 146.8 215.4 148C214.8 149.3 213.4 149.8 212.1 149.2C210.8 148.6 210.3 147.2 210.9 145.9C211 145.7 211.1 145.6 211.2 145.5C211.8 144.3 213.3 143.9 214.4 144.5C214.4 144.5 214.5 144.6 214.5 144.6ZM217.3 125.8C217.3 126.4 216.8 126.9 216.2 126.9C215.6 127 215.1 126.5 215 125.9V125.8C215 125.1 215.5 124.6 216.2 124.6C216.8 124.6 217.3 125.1 217.3 125.7V125.8ZM217.3 157.5C217.3 158.1 216.8 158.6 216.2 158.6C215.6 158.7 215.1 158.2 215 157.6V157.5C215 156.8 215.5 156.3 216.2 156.3C216.8 156.3 217.3 156.8 217.3 157.4V157.5ZM203 132.8C203.5 133.1 203.6 133.8 203.3 134.3C203 134.8 202.3 134.9 201.8 134.6C201.3 134.3 201.2 133.7 201.4 133.2C201.7 132.7 202.4 132.5 203 132.8ZM230.5 148.5C231 148.8 231.2 149.5 230.9 150C230.6 150.5 229.9 150.6 229.4 150.3C228.9 150 228.8 149.4 229 148.9C229.3 148.4 230 148.2 230.5 148.5ZM201.8 148.5C202.4 148.2 203 148.4 203.4 148.9C203.7 149.4 203.5 150.1 202.9 150.4C202.5 150.7 201.8 150.6 201.5 150.2C201.5 150.1 201.4 150.1 201.4 150C201.1 149.5 201.3 148.8 201.8 148.5ZM229.4 132.8C229.9 132.5 230.6 132.7 230.9 133.2C231.2 133.8 231 134.4 230.5 134.8C230 135.1 229.3 134.9 229 134.3C228.7 133.9 228.8 133.2 229.2 132.9C229.3 132.9 229.3 132.8 229.4 132.8ZM208.2 126.5C208.2 127 207.8 127.4 207.3 127.4C206.8 127.4 206.4 127 206.4 126.5C206.4 126 206.8 125.6 207.3 125.6C207.8 125.5 208.2 126 208.2 126.5ZM226 156.8C226 157.3 225.6 157.7 225.1 157.7C224.6 157.7 224.2 157.3 224.2 156.8C224.2 156.3 224.6 155.9 225.1 155.9C225.6 155.9 226 156.3 226 156.8ZM225.5 127.2C225.1 127.5 224.6 127.4 224.4 127L224.3 126.9C224.1 126.5 224.2 126 224.6 125.7C225 125.5 225.6 125.6 225.9 126C226.1 126.4 225.9 127 225.5 127.2ZM207.7 157.6C207.3 157.8 206.8 157.7 206.5 157.3C206.3 156.9 206.4 156.3 206.8 156C207.3 155.8 207.8 155.9 208.1 156.4C208.3 156.8 208.1 157.4 207.7 157.6ZM233.3 142.4C232.9 142.1 232.8 141.6 233 141.1C233.3 140.7 233.9 140.6 234.3 140.8C234.7 141.1 234.8 141.6 234.6 142C234.3 142.5 233.8 142.6 233.3 142.4ZM198.1 142.5C197.7 142.2 197.6 141.7 197.8 141.2C198.1 140.8 198.6 140.7 199 140.9C199.4 141.1 199.6 141.7 199.4 142.1C199.1 142.6 198.6 142.7 198.1 142.5Z" fill="black"/>
<path d="M485.7 155.499H490.7L480.3 165.799C476.5 169.499 470.5 169.499 466.7 165.799L456.4 155.499H461.3L469.2 163.299C471.5 165.699 475.3 165.699 477.7 163.399L477.8 163.299L485.7 155.499Z" fill="#23292F"/>
<path d="M461.3 183.999H456.3L466.7 173.699C470.5 169.999 476.5 169.999 480.3 173.699L490.7 183.999H485.8L477.8 176.199C475.5 173.799 471.7 173.799 469.3 176.099L469.2 176.199L461.3 183.999Z" fill="#23292F"/>
<path d="M439.7 26.6992C430.5 26.5992 423.1 33.9992 423 43.1992C422.9 52.3992 430.3 59.7993 439.5 59.8993C448.7 59.9993 456.1 52.5993 456.2 43.3993C456.2 43.2993 456.2 43.2992 456.2 43.1992C456.2 34.0992 448.8 26.6992 439.7 26.6992Z" fill="#0C0F3D"/>
<path d="M444.6 37.599H443.4V48.399H441.6V47.299C441.1 48.199 440.1 48.699 439.1 48.699C437.9 48.699 436.8 48.199 436 47.299C435.1 46.299 434.7 44.899 434.7 43.599C434.6 42.299 435.1 40.999 435.9 39.999C436.7 39.099 437.8 38.599 439 38.599C440 38.499 441 38.999 441.5 39.899V37.699H439.1V36.099H441.5V34.999H443.4V36.099H444.6V37.599ZM439.2 47.099C439.9 47.099 440.5 46.799 440.9 46.199C441.4 45.499 441.6 44.599 441.5 43.799C441.5 41.399 440.7 40.199 439.1 40.199C438.4 40.199 437.7 40.499 437.3 41.099C436.9 41.899 436.6 42.699 436.7 43.599C436.7 45.899 437.5 47.099 439.2 47.099ZM443.4 50.899H435V49.399H443.4V50.899Z" fill="white"/>
<path d="M292.3 548.799C283.2 548.799 275.8 556.199 275.8 565.299C275.8 574.399 283.2 581.799 292.3 581.799C301.4 581.799 308.8 574.399 308.8 565.299C308.8 556.199 301.4 548.799 292.3 548.799Z" fill="#0C0F3D"/>
<path d="M293.4 573.999C292.2 573.999 291 573.699 289.9 573.299C288.8 572.799 287.8 572.099 287.1 571.199C286.2 570.299 285.6 569.099 285.3 567.899H283.3V566.599H285.1C285 566.199 285 565.699 285 565.299V564.199H283.2V562.799H285.2C285.4 561.999 285.7 561.299 286.1 560.599C286.5 559.899 286.9 559.299 287.4 558.799C287.9 558.299 288.5 557.899 289.2 557.599C289.8 557.299 290.4 556.999 291.1 556.899C291.7 556.699 292.4 556.599 293.1 556.599C295.1 556.499 297.1 557.199 298.7 558.399L297.6 560.399C296.4 559.499 294.9 559.099 293.4 559.099C292.3 559.099 291.3 559.399 290.4 560.099C289.5 560.799 288.8 561.699 288.4 562.799H293.8V564.199H288.2C288.2 564.499 288.1 564.899 288.1 565.199C288.1 565.499 288.2 566.099 288.2 566.499H293.5V567.799H288.6C289.3 569.999 291.4 571.399 293.7 571.299C295.4 571.299 297 570.699 298.3 569.599L299.3 571.899C297.7 573.299 295.6 574.099 293.4 573.999Z" fill="white"/>
<defs>
<filter id="filter0_d" x="35.2" y="430.599" width="114.4" height="114.4" filterUnits="userSpaceOnUse" color-interpolation-filters="sRGB">
<feFlood flood-opacity="0" result="BackgroundImageFix"/>
<feColorMatrix in="SourceAlpha" type="matrix" values="0 0 0 0 0 0 0 0 0 0 0 0 0 0 0 0 0 0 127 0"/>
<feOffset dy="3"/>
<feGaussianBlur stdDeviation="5"/>
<feColorMatrix type="matrix" values="0 0 0 0 0 0 0 0 0 0 0 0 0 0 0 0 0 0 0.15 0"/>
<feBlend mode="normal" in2="BackgroundImageFix" result="effect1_dropShadow"/>
<feBlend mode="normal" in="SourceGraphic" in2="effect1_dropShadow" result="shape"/>
</filter>
<filter id="filter1_d" x="83.7" y="11.2988" width="90.8" height="90" filterUnits="userSpaceOnUse" color-interpolation-filters="sRGB">
<feFlood flood-opacity="0" result="BackgroundImageFix"/>
<feColorMatrix in="SourceAlpha" type="matrix" values="0 0 0 0 0 0 0 0 0 0 0 0 0 0 0 0 0 0 127 0"/>
<feOffset dy="3"/>
<feGaussianBlur stdDeviation="5"/>
<feColorMatrix type="matrix" values="0 0 0 0 0 0 0 0 0 0 0 0 0 0 0 0 0 0 0.15 0"/>
<feBlend mode="normal" in2="BackgroundImageFix" result="effect1_dropShadow"/>
<feBlend mode="normal" in="SourceGraphic" in2="effect1_dropShadow" result="shape"/>
</filter>
<filter id="filter2_d" x="435.2" y="134.499" width="76.6" height="76.6" filterUnits="userSpaceOnUse" color-interpolation-filters="sRGB">
<feFlood flood-opacity="0" result="BackgroundImageFix"/>
<feColorMatrix in="SourceAlpha" type="matrix" values="0 0 0 0 0 0 0 0 0 0 0 0 0 0 0 0 0 0 127 0"/>
<feOffset dy="3"/>
<feGaussianBlur stdDeviation="5"/>
<feColorMatrix type="matrix" values="0 0 0 0 0 0 0 0 0 0 0 0 0 0 0 0 0 0 0.15 0"/>
<feBlend mode="normal" in2="BackgroundImageFix" result="effect1_dropShadow"/>
<feBlend mode="normal" in="SourceGraphic" in2="effect1_dropShadow" result="shape"/>
</filter>
<filter id="filter3_d" x="323.2" y="381.8" width="92" height="91.0137" filterUnits="userSpaceOnUse" color-interpolation-filters="sRGB">
<feFlood flood-opacity="0" result="BackgroundImageFix"/>
<feColorMatrix in="SourceAlpha" type="matrix" values="0 0 0 0 0 0 0 0 0 0 0 0 0 0 0 0 0 0 127 0"/>
<feOffset dy="3"/>
<feGaussianBlur stdDeviation="5"/>
<feColorMatrix type="matrix" values="0 0 0 0 0 0 0 0 0 0 0 0 0 0 0 0 0 0 0.15 0"/>
<feBlend mode="normal" in2="BackgroundImageFix" result="effect1_dropShadow"/>
<feBlend mode="normal" in="SourceGraphic" in2="effect1_dropShadow" result="shape"/>
</filter>
<filter id="filter4_d" x="225.922" y="220.093" width="133.402" height="133.402" filterUnits="userSpaceOnUse" color-interpolation-filters="sRGB">
<feFlood flood-opacity="0" result="BackgroundImageFix"/>
<feColorMatrix in="SourceAlpha" type="matrix" values="0 0 0 0 0 0 0 0 0 0 0 0 0 0 0 0 0 0 127 0"/>
<feOffset dy="3"/>
<feGaussianBlur stdDeviation="5"/>
<feColorMatrix type="matrix" values="0 0 0 0 0 0 0 0 0 0 0 0 0 0 0 0 0 0 0.15 0"/>
<feBlend mode="normal" in2="BackgroundImageFix" result="effect1_dropShadow"/>
<feBlend mode="normal" in="SourceGraphic" in2="effect1_dropShadow" result="shape"/>
</filter>
<filter id="filter5_d" x="540.6" y="283.799" width="61" height="61" filterUnits="userSpaceOnUse" color-interpolation-filters="sRGB">
<feFlood flood-opacity="0" result="BackgroundImageFix"/>
<feColorMatrix in="SourceAlpha" type="matrix" values="0 0 0 0 0 0 0 0 0 0 0 0 0 0 0 0 0 0 127 0"/>
<feOffset dy="3"/>
<feGaussianBlur stdDeviation="5"/>
<feColorMatrix type="matrix" values="0 0 0 0 0 0 0 0 0 0 0 0 0 0 0 0 0 0 0.15 0"/>
<feBlend mode="normal" in2="BackgroundImageFix" result="effect1_dropShadow"/>
<feBlend mode="normal" in="SourceGraphic" in2="effect1_dropShadow" result="shape"/>
</filter>
<filter id="filter6_d" x="183.2" y="111.6" width="66" height="66" filterUnits="userSpaceOnUse" color-interpolation-filters="sRGB">
<feFlood flood-opacity="0" result="BackgroundImageFix"/>
<feColorMatrix in="SourceAlpha" type="matrix" values="0 0 0 0 0 0 0 0 0 0 0 0 0 0 0 0 0 0 127 0"/>
<feOffset dy="3"/>
<feGaussianBlur stdDeviation="5"/>
<feColorMatrix type="matrix" values="0 0 0 0 0 0 0 0 0 0 0 0 0 0 0 0 0 0 0.15 0"/>
<feBlend mode="normal" in2="BackgroundImageFix" result="effect1_dropShadow"/>
<feBlend mode="normal" in="SourceGraphic" in2="effect1_dropShadow" result="shape"/>
</filter>
<clipPath id="clip0">
<rect width="72" height="71.0137" fill="white" transform="translate(333.2 388.8)"/>
</clipPath>
</defs>
</svg>
